<?xml version="1.0" encoding="UTF-8" standalone="no"?>
<!-- Created with Inkscape (http://www.inkscape.org/) -->

<svg
   xmlns:dc="http://purl.org/dc/elements/1.1/"
   xmlns:cc="http://creativecommons.org/ns#"
   xmlns:rdf="http://www.w3.org/1999/02/22-rdf-syntax-ns#"
   xmlns:svg="http://www.w3.org/2000/svg"
   xmlns="http://www.w3.org/2000/svg"
   xmlns:sodipodi="http://sodipodi.sourceforge.net/DTD/sodipodi-0.dtd"
   xmlns:inkscape="http://www.inkscape.org/namespaces/inkscape"
   width="3004.8367"
   height="2874.0356"
   viewBox="0 0 3004.8368 2874.0355"
   id="svg2"
   version="1.1"
   inkscape:version="0.92.3 (2405546, 2018-03-11)"
   sodipodi:docname="cygnus.svg"
   inkscape:export-filename="/home/eric/data/WORK/PROJECT/TOOL/CYGNUS/LOGO/cygnus.png"
   inkscape:export-xdpi="90"
   inkscape:export-ydpi="90">
  <defs
     id="defs4">
    <marker
       inkscape:stockid="Arrow1Lstart"
       orient="auto"
       refY="0"
       refX="0"
       id="Arrow1Lstart"
       style="overflow:visible"
       inkscape:isstock="true">
      <path
         id="path4170"
         d="M 0,0 5,-5 -12.5,0 5,5 Z"
         style="fill:#000000;fill-opacity:1;fill-rule:evenodd;stroke:#000000;stroke-width:1.00000003pt;stroke-opacity:1"
         transform="matrix(0.8,0,0,0.8,10,0)"
         inkscape:connector-curvature="0" />
    </marker>
  </defs>
  <sodipodi:namedview
     id="base"
     pagecolor="#ffffff"
     bordercolor="#666666"
     borderopacity="1.0"
     inkscape:pageopacity="0.0"
     inkscape:pageshadow="2"
     inkscape:zoom="0.175"
     inkscape:cx="1302.5388"
     inkscape:cy="1113.2549"
     inkscape:document-units="px"
     inkscape:current-layer="layer1"
     showgrid="false"
     units="px"
     inkscape:window-width="1920"
     inkscape:window-height="1056"
     inkscape:window-x="0"
     inkscape:window-y="0"
     inkscape:window-maximized="1"
     fit-margin-top="120"
     fit-margin-left="120"
     fit-margin-right="120"
     fit-margin-bottom="120">
    <inkscape:grid
       type="xygrid"
       id="grid4149"
       originx="-32.822083"
       originy="120.9033" />
  </sodipodi:namedview>
  <metadata
     id="metadata7">
    <rdf:RDF>
      <cc:Work
         rdf:about="">
        <dc:format>image/svg+xml</dc:format>
        <dc:type
           rdf:resource="http://purl.org/dc/dcmitype/StillImage" />
        <dc:title></dc:title>
      </cc:Work>
    </rdf:RDF>
  </metadata>
  <g
     inkscape:label="Calque 1"
     inkscape:groupmode="layer"
     id="layer1"
     transform="translate(-32.822071,1700.7702)">
    <g
       id="g4205"
       transform="matrix(1.0002471,0,0,0.92684099,-0.37473923,-104.79318)">
      <text
         id="text4177"
         y="1068.0558"
         x="136.79506"
         style="font-style:normal;font-weight:normal;font-size:50.05473328px;line-height:100%;font-family:sans-serif;letter-spacing:0px;word-spacing:0px;fill:#2b59d8;fill-opacity:1;stroke:#ffffff;stroke-width:18;stroke-linecap:butt;stroke-linejoin:miter;stroke-miterlimit:4;stroke-dasharray:none;stroke-opacity:1"
         xml:space="preserve"><tspan
           id="tspan4199"
           style="font-style:normal;font-variant:normal;font-weight:normal;font-stretch:normal;font-size:782.10522461px;line-height:100%;font-family:Giorgio;-inkscape-font-specification:Giorgio;letter-spacing:0px;fill:#2b59d8;fill-opacity:1;stroke:none;stroke-width:18;stroke-miterlimit:4;stroke-dasharray:none;stroke-opacity:1"
           y="1068.0558"
           x="136.79506"
           sodipodi:role="line">Cygnus</tspan></text>
    </g>
    <path
       inkscape:connector-curvature="0"
       d="m 1336.0932,207.78012 c 1020.3144,154.49115 1056.1737,-477.76039 1056.1737,-477.76039 39.6605,-452.64902 -423.9222,-585.54592 -563.908,-837.04183 -140.2042,-251.354 184.9001,-289.1576 165.0972,-127.4247 -19.65,161.4927 75.4979,190.4051 80.9156,202.9663 5.3303,12.4847 143.5902,150.90848 163.415,124.89053 19.6937,-26.17087 -56.5798,-124.89053 -56.5798,-124.89053 0,0 59.2231,-34.2428 81.6256,-111.401 64.6845,-176.1181 -254.9366,-599.9202 -592.5583,-316.2131 -330.5875,305.4105 111.1934,636.03077 226.3081,801.20436 114.9618,165.21727 110.7238,289.88936 39.4202,312.55403 -72.8765,23.04697 -129.773,-49.51275 -159.6795,-161.76569 -27.8311,-104.68348 -211.8792,-441.72629 -603.5356,-334.1592 -290.92711,93.54229 -256.93556,208.41669 -490.56192,143.7541 -82.52125,786.72084 653.86772,905.28712 653.86772,905.28712 z"
       id="path887"
       style="fill:none;stroke:#2b59d8;stroke-width:52.92300034;stroke-miterlimit:4;stroke-dasharray:none;stroke-opacity:1" />
    <g
       id="g889"
       transform="matrix(10.922734,0,0,10.922734,580.11195,-1554.3081)" />
    <g
       id="g891"
       transform="matrix(10.922734,0,0,10.922734,580.11195,-1554.3081)" />
    <g
       id="g893"
       transform="matrix(10.922734,0,0,10.922734,580.11195,-1554.3081)" />
    <g
       id="g895"
       transform="matrix(10.922734,0,0,10.922734,580.11195,-1554.3081)" />
    <g
       id="g897"
       transform="matrix(10.922734,0,0,10.922734,580.11195,-1554.3081)" />
    <g
       id="g899"
       transform="matrix(10.922734,0,0,10.922734,580.11195,-1554.3081)" />
    <g
       id="g901"
       transform="matrix(10.922734,0,0,10.922734,580.11195,-1554.3081)" />
    <g
       id="g903"
       transform="matrix(10.922734,0,0,10.922734,580.11195,-1554.3081)" />
    <g
       id="g905"
       transform="matrix(10.922734,0,0,10.922734,580.11195,-1554.3081)" />
    <g
       id="g907"
       transform="matrix(10.922734,0,0,10.922734,580.11195,-1554.3081)" />
    <g
       id="g909"
       transform="matrix(10.922734,0,0,10.922734,580.11195,-1554.3081)" />
    <g
       id="g911"
       transform="matrix(10.922734,0,0,10.922734,580.11195,-1554.3081)" />
    <g
       id="g913"
       transform="matrix(10.922734,0,0,10.922734,580.11195,-1554.3081)" />
    <g
       id="g915"
       transform="matrix(10.922734,0,0,10.922734,580.11195,-1554.3081)" />
    <g
       id="g917"
       transform="matrix(10.922734,0,0,10.922734,580.11195,-1554.3081)" />
  </g>
</svg>
