<?xml version="1.0" encoding="UTF-8" standalone="no"?>
<!-- Created with Inkscape (http://www.inkscape.org/) -->

<svg
   xmlns:dc="http://purl.org/dc/elements/1.1/"
   xmlns:cc="http://creativecommons.org/ns#"
   xmlns:rdf="http://www.w3.org/1999/02/22-rdf-syntax-ns#"
   xmlns:svg="http://www.w3.org/2000/svg"
   xmlns="http://www.w3.org/2000/svg"
   xmlns:sodipodi="http://sodipodi.sourceforge.net/DTD/sodipodi-0.dtd"
   xmlns:inkscape="http://www.inkscape.org/namespaces/inkscape"
   width="2584.6636"
   height="2717.7925"
   viewBox="0 0 2584.6637 2717.7923"
   id="svg2"
   version="1.1"
   inkscape:version="0.92.3 (2405546, 2018-03-11)"
   sodipodi:docname="vista.svg"
   inkscape:export-filename="/home/eric/data/WORK/PROJECT/TOOL/VISTA/LOGO/vista.png"
   inkscape:export-xdpi="90"
   inkscape:export-ydpi="90">
  <defs
     id="defs4"><marker
   inkscape:stockid="Arrow1Lstart"
   orient="auto"
   refY="0"
   refX="0"
   id="Arrow1Lstart"
   style="overflow:visible"
   inkscape:isstock="true">
  <path
     id="path4170"
     d="M 0,0 5,-5 -12.5,0 5,5 Z"
     style="fill:#000000;fill-opacity:1;fill-rule:evenodd;stroke:#000000;stroke-width:1.00000003pt;stroke-opacity:1"
     transform="matrix(0.8,0,0,0.8,10,0)"
     inkscape:connector-curvature="0" />
</marker>

	
	
</defs>
  <sodipodi:namedview
     id="base"
     pagecolor="#ffffff"
     bordercolor="#666666"
     borderopacity="1.0"
     inkscape:pageopacity="0.0"
     inkscape:pageshadow="2"
     inkscape:zoom="0.175"
     inkscape:cx="206.99914"
     inkscape:cy="1337.126"
     inkscape:document-units="px"
     inkscape:current-layer="layer1"
     showgrid="false"
     units="px"
     inkscape:window-width="1920"
     inkscape:window-height="1056"
     inkscape:window-x="0"
     inkscape:window-y="0"
     inkscape:window-maximized="1"
     fit-margin-top="120"
     fit-margin-left="120"
     fit-margin-right="120"
     fit-margin-bottom="120">
    <inkscape:grid
       type="xygrid"
       id="grid4149"
       originx="-238.82802"
       originy="-26.38859" />
  </sodipodi:namedview>
  <metadata
     id="metadata7">
    <rdf:RDF>
      <cc:Work
         rdf:about="">
        <dc:format>image/svg+xml</dc:format>
        <dc:type
           rdf:resource="http://purl.org/dc/dcmitype/StillImage" />
        <dc:title></dc:title>
      </cc:Work>
    </rdf:RDF>
  </metadata>
  <g
     inkscape:label="Calque 1"
     inkscape:groupmode="layer"
     id="layer1"
     transform="translate(-238.82799,1691.8189)">
    <g
       id="g4205"
       transform="matrix(1.3555243,0,0,1.2560452,174.78935,-463.12536)"
       style="fill:#578bea;fill-opacity:1">
      <text
         id="text4177"
         y="1068.0558"
         x="136.79506"
         style="font-style:normal;font-weight:normal;font-size:50.05473328px;line-height:100%;font-family:sans-serif;letter-spacing:0px;word-spacing:0px;fill:#578bea;fill-opacity:1;stroke:#ffffff;stroke-width:18;stroke-linecap:butt;stroke-linejoin:miter;stroke-miterlimit:4;stroke-dasharray:none;stroke-opacity:1"
         xml:space="preserve"><tspan
           id="tspan4199"
           style="font-style:normal;font-variant:normal;font-weight:normal;font-stretch:normal;font-size:782.10522461px;line-height:100%;font-family:'Abyssinica SIL';-inkscape-font-specification:'Abyssinica SIL';letter-spacing:0px;fill:#578bea;fill-opacity:1;stroke:none;stroke-width:18;stroke-miterlimit:4;stroke-dasharray:none;stroke-opacity:1"
           y="1068.0558"
           x="136.79506"
           sodipodi:role="line">Vista</tspan></text>
    </g>
    <g
       id="g889"
       transform="matrix(10.922734,0,0,10.922734,580.11195,-1554.3081)" />
    <g
       id="g891"
       transform="matrix(10.922734,0,0,10.922734,580.11195,-1554.3081)" />
    <g
       id="g893"
       transform="matrix(10.922734,0,0,10.922734,580.11195,-1554.3081)" />
    <g
       id="g895"
       transform="matrix(10.922734,0,0,10.922734,580.11195,-1554.3081)" />
    <g
       id="g897"
       transform="matrix(10.922734,0,0,10.922734,580.11195,-1554.3081)" />
    <g
       id="g899"
       transform="matrix(10.922734,0,0,10.922734,580.11195,-1554.3081)" />
    <g
       id="g901"
       transform="matrix(10.922734,0,0,10.922734,580.11195,-1554.3081)" />
    <g
       id="g903"
       transform="matrix(10.922734,0,0,10.922734,580.11195,-1554.3081)" />
    <g
       id="g905"
       transform="matrix(10.922734,0,0,10.922734,580.11195,-1554.3081)" />
    <g
       id="g907"
       transform="matrix(10.922734,0,0,10.922734,580.11195,-1554.3081)" />
    <g
       id="g909"
       transform="matrix(10.922734,0,0,10.922734,580.11195,-1554.3081)" />
    <g
       id="g911"
       transform="matrix(10.922734,0,0,10.922734,580.11195,-1554.3081)" />
    <g
       id="g913"
       transform="matrix(10.922734,0,0,10.922734,580.11195,-1554.3081)" />
    <g
       id="g915"
       transform="matrix(10.922734,0,0,10.922734,580.11195,-1554.3081)" />
    <g
       id="g917"
       transform="matrix(10.922734,0,0,10.922734,580.11195,-1554.3081)" />
    <g
       id="g1026"
       transform="translate(-34.431416)">
      <g
         id="g1010">
        <g
           id="g994">
          <g
             transform="matrix(5.2087532,0,0,5.2087532,405.3935,-1885.1775)"
             id="g925">
		<polygon
   id="polygon901"
   points="107.62,266.1 85.37,219.58 110.62,165.15 133.19,213.8 "
   style="fill:#f2f2f2" />

		<polygon
   id="polygon903"
   points="133.19,213.8 155.09,261.02 174.643,308.1 174.643,332.767 175.977,355.433 82.12,363 20.17,363 20.17,360.14 85.37,219.58 107.62,231.15 "
   style="fill:#999999" />

		<polygon
   id="polygon905"
   points="160.643,307.433 155.09,261.02 133.19,213.8 107.62,231.15 "
   style="fill:#b3b3b3" />

		<polygon
   id="polygon907"
   points="349.85,255.74 331.11,292.767 314.1,257.55 332.61,231.15 "
   style="fill:#f2f2f2" />

		<polygon
   id="polygon909"
   points="179.977,244.767 194.61,177.15 194.11,176.92 224.61,111.15 266.951,196.918 263.977,245.433 "
   style="fill:#f2f2f2" />

		<polygon
   id="polygon911"
   points="415.977,359.433 423.06,363 358.1,363 285.977,354.767 279.977,310.1 301.11,276.07 314.1,257.55 331.11,273.14 349.85,255.74 "
   style="fill:#999999" />

		<polygon
   id="polygon913"
   points="194.61,177.15 203.61,207.15 235.11,180.15 267.88,204.42 301.11,276.07 317.57,311.54 327.31,304.51 358.1,363 82.12,363 127.11,277.51 142.34,288.51 142.35,288.5 155.09,261.02 194.11,176.92 "
   style="fill:#b3b3b3" />

		<polygon
   id="polygon915"
   points="259.11,283.65 268.11,274.65 296.95,325.912 317.57,311.54 266.951,196.918 235.11,180.15 236.953,228.416 "
   style="fill:#cccccc" />

		<polyline
   id="polyline917"
   points="142.35,288.5 178.643,315.433 203.61,207.15 194.11,176.92   "
   style="fill:#999999" />

		<polygon
   id="polygon919"
   points="379.977,363 425.31,363 349.85,255.74 331.11,273.14 "
   style="fill:#b3b3b3" />

		<path
   id="path921"
   d="m 339.35,60.16 c 27.75,0 50.25,22.49 50.25,50.25 0,27.75 -22.5,50.24 -50.25,50.24 -27.75,0 -50.24,-22.49 -50.24,-50.24 0,-27.76 22.49,-50.25 50.24,-50.25 z"
   style="fill:#eab932"
   inkscape:connector-curvature="0" />

		
	</g>
        </g>
      </g>
    </g>
  </g>
</svg>
