<?xml version="1.0" encoding="UTF-8" standalone="no"?>
<svg
   version="1.0"
   width="255.689320pt"
   height="425.734771pt"
   viewBox="0 0 255.689320 425.734771"
   preserveAspectRatio="xMidYMid meet"
   id="svg18"
   sodipodi:docname="drag_icon.svg"
   inkscape:version="1.2.2 (732a01da63, 2022-12-09)"
   xmlns:inkscape="http://www.inkscape.org/namespaces/inkscape"
   xmlns:sodipodi="http://sodipodi.sourceforge.net/DTD/sodipodi-0.dtd"
   xmlns="http://www.w3.org/2000/svg"
   xmlns:svg="http://www.w3.org/2000/svg">
  <defs
     id="defs22" />
  <sodipodi:namedview
     id="namedview20"
     pagecolor="#ffffff"
     bordercolor="#999999"
     borderopacity="1"
     inkscape:showpageshadow="0"
     inkscape:pageopacity="0"
     inkscape:pagecheckerboard="0"
     inkscape:deskcolor="#d1d1d1"
     inkscape:document-units="pt"
     showgrid="false"
     inkscape:zoom="0.41575181"
     inkscape:cx="188.81457"
     inkscape:cy="297.05223"
     inkscape:window-width="1928"
     inkscape:window-height="1667"
     inkscape:window-x="1351"
     inkscape:window-y="152"
     inkscape:window-maximized="0"
     inkscape:current-layer="svg18" />
  <metadata
     id="metadata2">
Created by potrace 1.12, written by Peter Selinger 2001-2015
</metadata>
  <g
     transform="translate(-128.139504,468.809584) scale(0.100000,-0.100000)"
     fill="#000000"
     stroke="none"
     id="g16"
     style="fill:#9a9a9a;fill-opacity:1">
    <path
       d="M1570 4670 c-165 -61 -273 -200 -287 -371 -21 -254 202 -477 456 -456 176 15 322 132 375 302 28 88 19 211 -21 297 -44 93 -109 160 -201 205 -68 34 -83 38 -171 40 -77 3 -107 -1 -151 -17z"
       id="path4"
       style="fill:#9a9a9a;fill-opacity:1" />
    <path
       d="M3285 4673 c-121 -44 -205 -118 -258 -231 -30 -63 -32 -74 -32 -177 0 -105 2 -114 34 -180 133 -270 485 -327 690 -110 201 212 140 546 -123 675 -62 31 -80 35 -165 37 -73 3 -108 -1 -146 -14z"
       id="path6"
       style="fill:#9a9a9a;fill-opacity:1" />
    <path
       d="M1620 2976 c-84 -18 -149 -54 -213 -117 -168 -167 -168 -430 0 -598 166 -165 420 -169 588 -10 92 87 135 185 135 309 0 123 -43 222 -133 308 -65 61 -119 89 -206 108 -78 16 -98 16 -171 0z"
       id="path8"
       style="fill:#9a9a9a;fill-opacity:1" />
    <path
       d="M3324 2975 c-82 -18 -137 -47 -201 -107 -90 -86 -133 -185 -133 -308 0 -124 43 -222 135 -309 168 -159 422 -155 588 10 168 168 168 430 0 598 -65 64 -139 104 -227 120 -72 13 -84 13 -162 -4z"
       id="path10"
       style="fill:#9a9a9a;fill-opacity:1" />
    <path
       d="M1599 1266 c-112 -32 -221 -121 -272 -222 -118 -236 3 -518 258 -598 42 -14 79 -17 145 -14 77 4 98 9 163 41 143 71 228 199 235 358 5 106 -12 171 -67 256 -45 70 -125 135 -203 165 -67 25 -196 33 -259 14z"
       id="path12"
       style="fill:#9a9a9a;fill-opacity:1" />
    <path
       d="M3300 1264 c-116 -31 -214 -115 -271 -229 -32 -66 -34 -75 -34 -180 0 -103 2 -114 32 -177 44 -94 109 -160 202 -206 73 -36 78 -37 186 -37 106 0 113 2 180 34 264 130 325 463 124 676 -109 115 -267 160 -419 119z"
       id="path14"
       style="fill:#9a9a9a;fill-opacity:1" />
  </g>
</svg>
